<svg width="230" height="89" viewBox="0 0 230 89" fill="none" xmlns="http://www.w3.org/2000/svg">
<path d="M36.576 62.96C36.576 67.52 34.92 71.12 31.608 73.76C28.296 76.4 23.712 77.72 17.856 77.72C12.192 77.72 7.392 76.76 3.456 74.84V66.2C5.616 67.16 7.992 68.048 10.584 68.864C13.176 69.632 15.816 70.016 18.504 70.016C21.576 70.016 23.832 69.416 25.272 68.216C26.712 67.016 27.432 65.432 27.432 63.464C27.432 61.304 26.52 59.6 24.696 58.352C22.872 57.104 20.208 55.736 16.704 54.248C14.592 53.336 12.576 52.256 10.656 51.008C8.736 49.76 7.152 48.176 5.904 46.256C4.656 44.288 4.032 41.84 4.032 38.912C4.032 34.496 5.568 31.064 8.64 28.616C11.76 26.12 15.912 24.872 21.096 24.872C23.832 24.872 26.376 25.16 28.728 25.736C31.128 26.312 33.528 27.128 35.928 28.184L32.976 35.6C30.816 34.688 28.752 33.968 26.784 33.44C24.864 32.912 22.872 32.648 20.808 32.648C18.312 32.648 16.416 33.224 15.12 34.376C13.824 35.48 13.176 36.92 13.176 38.696C13.176 40.136 13.536 41.336 14.256 42.296C14.976 43.256 16.08 44.144 17.568 44.96C19.104 45.776 21.072 46.712 23.472 47.768C26.208 48.968 28.56 50.216 30.528 51.512C32.496 52.808 33.984 54.368 34.992 56.192C36.048 58.016 36.576 60.272 36.576 62.96ZM81.3291 77L67.2171 34.88H66.9291C66.9771 35.84 67.0491 37.208 67.1451 38.984C67.2411 40.712 67.3131 42.608 67.3611 44.672C67.4571 46.688 67.5051 48.584 67.5051 50.36V77H59.2251V25.592H72.0411L85.5771 65.984H85.8651L99.9771 25.592H112.793V77H104.009V49.928C104.009 48.296 104.033 46.52 104.081 44.6C104.177 42.632 104.249 40.784 104.297 39.056C104.393 37.328 104.465 35.96 104.513 34.952H104.225L89.5371 77H81.3291ZM145.316 77L131.204 34.88H130.916C130.964 35.84 131.036 37.208 131.132 38.984C131.228 40.712 131.3 42.608 131.348 44.672C131.444 46.688 131.492 48.584 131.492 50.36V77H123.212V25.592H136.028L149.564 65.984H149.852L163.964 25.592H176.78V77H167.996V49.928C167.996 48.296 168.02 46.52 168.068 44.6C168.164 42.632 168.236 40.784 168.284 39.056C168.38 37.328 168.452 35.96 168.5 34.952H168.212L153.524 77H145.316ZM201.815 25.592C208.583 25.592 213.575 26.84 216.791 29.336C220.055 31.832 221.687 35.624 221.687 40.712C221.687 43.208 221.207 45.344 220.247 47.12C219.335 48.896 218.135 50.384 216.647 51.584C215.159 52.736 213.551 53.672 211.823 54.392L226.583 77H216.215L203.903 56.696H196.415V77H187.199V25.592H201.815ZM201.239 33.296H196.415V49.136H201.527C205.319 49.136 208.055 48.464 209.735 47.12C211.463 45.728 212.327 43.688 212.327 41C212.327 38.216 211.415 36.248 209.591 35.096C207.815 33.896 205.031 33.296 201.239 33.296Z" fill="#42403D"/>
<path fill-rule="evenodd" clip-rule="evenodd" d="M53.5436 9L54.9896 26.7486C55.2016 29.3498 52.1511 31.5451 48.2791 32.0715V42.5512C48.2791 53.4886 50.75 69.3208 50.75 75.0858C50.75 77.2476 49.8721 79 46.5 79C43.1278 79 42.25 77.2477 42.25 75.0858C42.25 69.3636 44.7208 53.4558 44.7208 42.5512V32.0716C40.8525 31.5456 37.8159 29.3509 38.0087 26.7486C38.447 20.8324 38.8851 14.9162 39.3234 9C39.8409 9 40.3584 9 40.8758 9L41.143 24.2026C41.1524 24.7336 41.6521 25.1683 42.2744 25.1683C42.8966 25.1683 43.3963 24.7335 43.4055 24.2026C43.4945 19.135 43.5837 14.0675 43.6727 9C44.1491 9 44.6253 9 45.1016 9L45.3688 24.2026C45.3781 24.7336 45.8777 25.1683 46.5001 25.1683C47.1222 25.1683 47.6222 24.7335 47.6313 24.2026C47.7203 19.135 47.8095 14.0675 47.8985 9C48.3748 9 48.851 9 49.3274 9L49.5946 24.2026C49.6038 24.7336 50.1034 25.1683 50.7257 25.1683C51.3481 25.1683 51.8477 24.7335 51.8571 24.2026C51.9461 19.135 52.0351 14.0675 52.1241 9C52.5973 9 53.0704 9 53.5436 9Z" fill="#42403D" stroke="#42403D" stroke-width="0.3" stroke-miterlimit="22.9256" stroke-linecap="round" stroke-linejoin="round"/>
</svg>
